<svg width="560" height="560" viewBox="0 0 560 560" fill="none" xmlns="http://www.w3.org/2000/svg">
<mask id="mask0_394_15717" style="mask-type:luminance" maskUnits="userSpaceOnUse" x="0" y="0" width="560" height="560">
<path d="M560 0H0V560H560V0Z" fill="white"/>
</mask>
<g mask="url(#mask0_394_15717)">
<path d="M0 280C0 202.62 1.19209e-06 163.929 10.726 132.779C30.4564 75.4776 75.4776 30.4564 132.779 10.726C163.929 0 202.62 0 280 0C357.38 0 396.07 0 427.222 10.726C484.522 30.4564 529.544 75.4776 549.274 132.779C560 163.929 560 202.62 560 280C560 357.38 560 396.07 549.274 427.222C529.544 484.522 484.522 529.544 427.222 549.274C396.07 560 357.38 560 280 560C202.62 560 163.929 560 132.779 549.274C75.4776 529.544 30.4564 484.522 10.726 427.222C1.19209e-06 396.07 0 357.38 0 280Z" fill="#2A2A2A"/>
<path d="M289.789 261.101L435.583 159.02L446.875 175.144L299.583 278.269L462.619 354.297L454.301 372.139L289.789 295.423V476.879H270.103V392.561L255.461 475.597L236.073 472.179L256.897 354.049L206.609 461.899L188.763 453.581L253.277 315.229L135.464 414.095L122.809 399.013L249.701 292.531L84.6861 306.971L82.9688 287.357L255.427 272.265L122.818 160.998L135.473 145.916L270.103 258.881V81.8164H289.789V261.101Z" fill="white"/>
</g>
</svg>
