<svg width="32" height="32" viewBox="0 0 32 32" fill="none" xmlns="http://www.w3.org/2000/svg">
<path d="M11.5 22.5C11.5 22.5 13.12 24.5 16 24.5C18.88 24.5 20.5 22.5 20.5 22.5" stroke="#2A2A2A" stroke-width="1.5" stroke-linecap="round"/>
<path d="M15.9953 22.0165C16.7133 22.0165 17.2953 21.4345 17.2953 20.7165C17.2953 19.9985 16.7133 19.4165 15.9953 19.4165C15.2773 19.4165 14.6953 19.9985 14.6953 20.7165C14.6953 21.4345 15.2773 22.0165 15.9953 22.0165Z" fill="#2A2A2A"/>
<path d="M4.35254 10.2656L4.33594 10.2822C3.96096 10.6573 3.75 11.1659 3.75 11.6963V14.8008C3.75 15.3311 3.96097 15.8398 4.33594 16.2148L6.53125 18.4111C6.90631 18.7861 7.41494 18.9971 7.94531 18.9971H11.0498C11.5802 18.9971 12.0888 18.7861 12.4639 18.4111L14.6602 16.2148C15.035 15.8398 15.2451 15.331 15.2451 14.8008V11.6963C15.2451 11.166 15.035 10.6573 14.6602 10.2822L14.6436 10.2656H4.35254Z" fill="white"/>
<path d="M17.3574 10.2656L17.3408 10.2822C16.9658 10.6573 16.7549 11.1659 16.7549 11.6963V14.8008C16.7549 15.3311 16.9659 15.8398 17.3408 16.2148L19.5361 18.4111C19.9112 18.7861 20.4198 18.9971 20.9502 18.9971H24.0547C24.5851 18.9971 25.0937 18.7861 25.4688 18.4111L27.665 16.2148C28.0399 15.8398 28.25 15.331 28.25 14.8008V11.6963C28.25 11.166 28.0399 10.6573 27.665 10.2822L27.6484 10.2656H17.3574Z" fill="white"/>
<path fill-rule="evenodd" clip-rule="evenodd" d="M20.9502 6C20.0219 6 19.131 6.36891 18.4746 7.02539L16.2793 9.2207C16.1789 9.32109 16.0884 9.42931 16.002 9.54004C15.9505 9.47378 15.8965 9.40925 15.8398 9.34668L15.7207 9.2207L13.5244 7.02539C12.8681 6.36909 11.978 6.00001 11.0498 6H7.94531C7.01697 6 6.12612 6.36891 5.46973 7.02539L3.27441 9.2207C2.9702 9.52499 2.72907 9.8802 2.55664 10.2656C2.35723 10.7114 2.2501 11.1977 2.25 11.6953V14.8008C2.25 15.7287 2.61844 16.6191 3.27441 17.2754L5.46973 19.4717L5.5957 19.5908C6.2378 20.1724 7.07488 20.4971 7.94531 20.4971H11.0498C11.978 20.4971 12.8681 20.1279 13.5244 19.4717L15.7207 17.2754L15.8398 17.1494C15.8961 17.0873 15.9477 17.0217 15.999 16.9561C16.0859 17.0672 16.1785 17.1746 16.2793 17.2754L18.4746 19.4717L18.6006 19.5908C19.2427 20.1724 20.0798 20.4971 20.9502 20.4971H24.0547C24.9828 20.4971 25.8729 20.1279 26.5293 19.4717L28.7256 17.2754L28.8447 17.1494C29.4259 16.5074 29.75 15.6709 29.75 14.8008V11.6963C29.75 11.1979 29.6404 10.7119 29.4404 10.2656C29.2912 9.93259 29.0932 9.62104 28.8447 9.34668L28.7256 9.2207L26.5293 7.02539C25.8729 6.36909 24.9829 6.00001 24.0547 6H20.9502ZM27.665 10.2812L27.7979 10.4287C28.0892 10.7845 28.2499 11.2324 28.25 11.6963V14.8008L28.2402 14.998C28.1949 15.4558 27.9931 15.8866 27.665 16.2148L25.4688 18.4111L25.3223 18.5439C25.0171 18.7939 24.6445 18.9484 24.252 18.9873L24.0547 18.9971H20.9502L20.752 18.9873C20.2944 18.9418 19.8642 18.7391 19.5361 18.4111L17.3408 16.2148C17.0127 15.8866 16.81 15.4559 16.7646 14.998L16.7549 14.8008V11.6953C16.755 11.2315 16.9166 10.7844 17.208 10.4287L17.3408 10.2812L17.3564 10.2656H20.9053V13.249C20.9053 14.134 21.1489 14.9513 21.5615 15.5566C21.973 16.1601 22.5776 16.583 23.2891 16.583C24.0005 16.583 24.6052 16.1601 25.0166 15.5566C25.4293 14.9513 25.6729 14.134 25.6729 13.249V10.2656H27.6494L27.665 10.2812ZM14.6602 10.2812L14.793 10.4287C15.0843 10.7845 15.2451 11.2324 15.2451 11.6963V14.8008L15.2354 14.998C15.19 15.4558 14.9882 15.8866 14.6602 16.2148L12.4639 18.4111L12.3174 18.5439C12.0122 18.7939 11.6396 18.9484 11.2471 18.9873L11.0498 18.9971H7.94531L7.74707 18.9873C7.28952 18.9418 6.85929 18.7391 6.53125 18.4111L4.33594 16.2148C4.00779 15.8866 3.80511 15.4559 3.75977 14.998L3.75 14.8008V11.6953C3.75016 11.2315 3.91176 10.7844 4.20312 10.4287L4.33594 10.2812L4.35156 10.2656H7.90039V13.249C7.90039 14.134 8.14398 14.9513 8.55664 15.5566C8.96808 16.1601 9.57271 16.583 10.2842 16.583C10.9956 16.583 11.6003 16.1601 12.0117 15.5566C12.4244 14.9513 12.668 14.134 12.668 13.249V10.2656H14.6445L14.6602 10.2812ZM24.252 7.50977C24.7099 7.55515 25.1405 7.75772 25.4688 8.08594L26.1484 8.76562H18.8564L19.5361 8.08594C19.8642 7.75796 20.2944 7.55531 20.752 7.50977L20.9502 7.5H24.0547L24.252 7.50977ZM11.2471 7.50977C11.705 7.55515 12.1356 7.75772 12.4639 8.08594L13.1436 8.76562H5.85156L6.53125 8.08594C6.8593 7.75796 7.28948 7.55531 7.74707 7.50977L7.94531 7.5H11.0498L11.2471 7.50977Z" fill="#2A2A2A"/>
</svg>
